<?xml version="1.0" encoding="UTF-8" standalone="no"?>
<!-- Created with Inkscape (http://www.inkscape.org/) -->

<svg
   width="16"
   height="16"
   viewBox="0 0 4.2333332 4.2333335"
   version="1.1"
   id="svg3149"
   inkscape:version="1.2 (dc2aedaf03, 2022-05-15)"
   sodipodi:docname="input_joypad.svg"
   xml:space="preserve"
   xmlns:inkscape="http://www.inkscape.org/namespaces/inkscape"
   xmlns:sodipodi="http://sodipodi.sourceforge.net/DTD/sodipodi-0.dtd"
   xmlns="http://www.w3.org/2000/svg"
   xmlns:svg="http://www.w3.org/2000/svg"><sodipodi:namedview
     id="namedview3151"
     pagecolor="#505050"
     bordercolor="#eeeeee"
     borderopacity="1"
     inkscape:pageshadow="0"
     inkscape:pageopacity="0"
     inkscape:pagecheckerboard="0"
     inkscape:document-units="px"
     showgrid="false"
     units="px"
     width="16px"
     inkscape:zoom="16"
     inkscape:cx="3.3125"
     inkscape:cy="10.5625"
     inkscape:window-width="1916"
     inkscape:window-height="1033"
     inkscape:window-x="0"
     inkscape:window-y="18"
     inkscape:window-maximized="1"
     inkscape:current-layer="layer1"
     inkscape:lockguides="true"
     inkscape:showpageshadow="0"
     inkscape:deskcolor="#505050" /><defs
     id="defs3146" /><g
     inkscape:label="Layer 1"
     inkscape:groupmode="layer"
     id="layer1"><path
       id="path322"
       style="fill:#ffffff;stroke-width:0.352778;stroke-linecap:round;stroke-linejoin:round;paint-order:stroke markers fill"
       d="M 1.0583333 0 A 1.0583334 1.0583334 0 0 0 0 1.0583333 A 1.0583334 1.0583334 0 0 0 1.0583333 2.1166667 A 1.0583334 1.0583334 0 0 0 1.3167155 2.0841105 L 2.1492228 2.9166179 A 1.0583334 1.0583334 0 0 0 2.1166667 3.175 A 1.0583334 1.0583334 0 0 0 3.175 4.2333333 A 1.0583334 1.0583334 0 0 0 4.2333333 3.175 A 1.0583334 1.0583334 0 0 0 3.7961507 2.3182048 L 1.9151286 0.43718262 A 1.0583334 1.0583334 0 0 0 1.6794841 0.20153809 L 1.6675985 0.18965251 L 1.6655314 0.19171956 A 1.0583334 1.0583334 0 0 0 1.0583333 0 z M 0.56844076 0.36638591 C 0.56919625 0.36628474 0.57020904 0.36641981 0.57102458 0.36638591 C 0.59549057 0.36536872 0.62047154 0.37449178 0.63923747 0.39325765 L 0.96014812 0.71468506 L 1.2815755 0.39325765 C 1.3171615 0.35767184 1.3741471 0.35767201 1.4097331 0.39325765 L 1.5384074 0.52193197 C 1.5739922 0.55751697 1.5739934 0.61450378 1.5384074 0.65008952 L 1.21698 0.97151693 L 1.5384074 1.2924276 C 1.5739931 1.328013 1.5739934 1.3855159 1.5384074 1.4211019 L 1.4097331 1.5497762 C 1.3741475 1.5853622 1.3171615 1.5853622 1.2815755 1.5497762 L 0.96014812 1.2283488 L 0.63923747 1.5497762 C 0.60365246 1.5853612 0.54614883 1.5853622 0.51056315 1.5497762 L 0.3824056 1.4211019 C 0.34682015 1.3855161 0.34681996 1.3280132 0.3824056 1.2924276 L 0.70331625 0.97151693 L 0.3824056 0.65008952 C 0.34682015 0.61450399 0.34681986 0.55751771 0.3824056 0.52193197 L 0.51056315 0.39325765 C 0.52613197 0.37768886 0.5461298 0.36884877 0.5663737 0.36690267 C 0.56718707 0.36682448 0.56768527 0.36648707 0.56844076 0.36638591 z M 2.0427694 1.1415324 C 2.0448809 1.141432 2.0468571 1.1415324 2.0489705 1.1415324 C 2.0827868 1.1415324 2.1165931 1.154378 2.1425049 1.1802897 L 2.4231079 1.4608927 C 2.4749314 1.5127163 2.4749314 1.5966547 2.4231079 1.6484782 C 2.3712846 1.7003015 2.2878627 1.7003015 2.2360392 1.6484782 L 1.9554362 1.3673584 C 1.9036129 1.3155351 1.9036129 1.2321132 1.9554362 1.1802897 C 1.9797285 1.1559975 2.0110968 1.1430385 2.0427694 1.1415324 z M 2.6272298 1.7259928 C 2.6293413 1.7258887 2.6313175 1.7259928 2.633431 1.7259928 C 2.6672472 1.7259928 2.7010537 1.7393553 2.7269653 1.7652669 L 3.0075684 2.04587 C 3.0593918 2.0976934 3.0593918 2.1811152 3.0075684 2.2329386 C 2.9557449 2.2847622 2.8723231 2.2847622 2.8204997 2.2329386 L 2.5398967 1.9523356 C 2.4880731 1.9005122 2.4880731 1.8170904 2.5398967 1.7652669 C 2.5641889 1.7409747 2.5955572 1.7275558 2.6272298 1.7259928 z M 3.1651815 2.5367961 A 0.74238195 0.74238195 0 0 1 3.7346558 2.7528036 A 0.74238195 0.74238195 0 0 1 3.7346558 3.8023519 A 0.74238195 0.74238195 0 0 1 2.6845907 3.8023519 A 0.74238195 0.74238195 0 0 1 2.6851074 2.7528036 A 0.74238195 0.74238195 0 0 1 3.1651815 2.5367961 z M 2.868042 2.7217977 A 0.23899958 0.23899958 0 0 0 2.725415 2.7900106 A 0.23899958 0.23899958 0 0 0 2.725415 3.1279745 A 0.23899958 0.23899958 0 0 0 3.0633789 3.1279745 A 0.23899958 0.23899958 0 0 0 3.0633789 2.7900106 A 0.23899958 0.23899958 0 0 0 2.868042 2.7217977 z M 3.4421672 2.7662394 A 0.23899958 0.23899958 0 0 0 3.300057 2.8344523 A 0.23899958 0.23899958 0 0 0 3.300057 3.172933 A 0.23899958 0.23899958 0 0 0 3.6380208 3.172933 A 0.23899958 0.23899958 0 0 0 3.6380208 2.8344523 A 0.23899958 0.23899958 0 0 0 3.4421672 2.7662394 z M 2.8928467 3.3160767 A 0.23899958 0.23899958 0 0 0 2.7507365 3.3842896 A 0.23899958 0.23899958 0 0 0 2.7507365 3.7222534 A 0.23899958 0.23899958 0 0 0 3.0887004 3.7222534 A 0.23899958 0.23899958 0 0 0 3.0887004 3.3842896 A 0.23899958 0.23899958 0 0 0 2.8928467 3.3160767 z M 3.488676 3.3424317 A 0.23899958 0.23899958 0 0 0 3.3465658 3.4111613 A 0.23899958 0.23899958 0 0 0 3.346049 3.7486084 A 0.23899958 0.23899958 0 0 0 3.6840129 3.7486084 A 0.23899958 0.23899958 0 0 0 3.6840129 3.4106445 A 0.23899958 0.23899958 0 0 0 3.488676 3.3424317 z " /></g></svg>
