<svg height="16" viewBox="0 0 16 16" width="16" xmlns="http://www.w3.org/2000/svg"><g fill="#a5efac"><g stroke-linecap="round" stroke-linejoin="round" stroke-width="1.53369"><path d="m8 0a8 8 0 0 0 -8 8h6a2 2 0 0 1 2-2z"/><path d="m16 8a8 8 0 0 0 -8-8v6a2 2 0 0 1 2 2z"/><path d="m8 16a8 8 0 0 0 8-8h-6a2 2 0 0 1 -2 2z"/></g><path d="m-9.1722509 11.964149-11.0358051-1.492229 6.810211-8.8111728z" transform="matrix(.45323142 .34974797 -.34974797 .45323142 15.136257 11.455172)"/><path d="m10.371852 2.835554h2.106129v5.613415h-2.106129z" transform="matrix(.65583261 .75490634 -.75490634 .65583261 0 0)"/></g></svg>