<svg height="16" viewBox="0 0 16 16" width="16" xmlns="http://www.w3.org/2000/svg"><path d="m9 .06445313v2.01953127a6 6 0 0 1 4.916016 4.9160156h2.019531a8 8 0 0 0 -6.935547-6.93554687zm-2 .0078125a8 8 0 0 0 -4.3925781 2.05468747c.6827594-.5419979 1.5440364-.8671875 2.4785156-.8671875.6922553 0 1.3447044.1775602 1.9140625.4902344zm0 1.67773437v.3378906a6 6 0 0 0 -1.8535156.6484375c1.3755115.0317892 2.4667969 1.1397547 2.4667968 2.5234375 0 1.4039844-1.1233585 2.5273438-2.5273437 2.5273438-1.3275227 0-2.400531-1.0045246-2.5136719-2.3007813a6 6 0 0 0 -.484375 1.5136719h-.5996094c.6500886 1.3344399 2.0201602 2.2597656 3.5976563 2.2597656 2.2004083 0 4-1.799592 4-4 0-1.5081527-.8455293-2.828571-2.0859375-3.5097656zm-5.5117188 5.25c-.256703-.5269356-.4023437-1.1173223-.4023437-1.7402344 0-.825153.2531759-1.5937626.6855469-2.2324218a8 8 0 0 0 -1.69921877 3.9726562zm1.0839844-1.5136719a6 6 0 0 1 2.5742188-2.75c-.0201817-.0004664-.0402453-.0019531-.0605469-.0019531-1.4039852 0-2.5253906 1.1214062-2.5253906 2.5253906 0 .0764625.0052021.1519009.0117187.2265625zm.0351563-3.359375c-.2421675.1922409-.462056.4121294-.6542969.6542969a8 8 0 0 1 .6542969-.6542969zm-.6542969.6542969c-.0511373.0644181-.1012612.129743-.1484375.1972656a8 8 0 0 1 .1484375-.1972656zm-1.88085937 6.21875a8 8 0 0 0 6.92773437 6.927734v-2.015625a6 6 0 0 1 -4.9121094-4.912109zm13.83984337 0a6 6 0 0 1 -4.912109 4.912109v2.015625a8 8 0 0 0 6.927734-6.927734z" fill="#a5efac" stroke-linecap="round" stroke-linejoin="round" stroke-width="2.44725"/></svg>